<svg id="Layer_1" data-name="Layer 1" xmlns="http://www.w3.org/2000/svg" viewBox="0 0 220 90"><defs><style>.cls-1{font-size:9.03px;}.cls-1,.cls-2{font-family:HoonDdukbokR, "1HoonDdukbokki";}.cls-2{font-size:40.43px;}.cls-2,.cls-4{fill:#013379;}.cls-3{fill:#c60c32;}</style></defs><title>Choege logo</title><text class="cls-1" transform="translate(76.74 70.34)">Choege Investment Private Limited</text><text class="cls-2" transform="translate(77.09 53.88)">최게투자</text><path class="cls-3" d="M21.57,66.59l3.71-3.45v6.48A27.09,27.09,0,0,1,21.57,66.59Z"/><path class="cls-3" d="M58.07,25.61,53,30.33a2,2,0,0,1-2.44.25,19,19,0,0,0-8.93-2.75l-1,0a18.94,18.94,0,0,0-7.23,1.42,19.12,19.12,0,0,0-9.7,26.35,2,2,0,0,1-.41,2.36l-5.1,4.74a27.53,27.53,0,0,1,7-38.56,26.6,26.6,0,0,1,3.52-2A26.93,26.93,0,0,1,37,19.64a26.89,26.89,0,0,1,3.71-.26l1,0a27.38,27.38,0,0,1,16.44,6.21Z"/><path class="cls-4" d="M61.72,29.23,55.55,35l-9.61,8.94a2.5,2.5,0,0,0-.79,1.82V74A27.52,27.52,0,0,0,61.72,29.23ZM61.1,57.3A1.3,1.3,0,0,1,59.8,56V39.71L51,47.93a1.26,1.26,0,0,1-.88.35,1.34,1.34,0,0,1-1-.41A1.32,1.32,0,0,1,49.19,46l11-10.26a.27.27,0,0,1,.08-.07l.1-.08.1,0,.13-.06.11,0,.13,0,.12,0h.27l.12,0,.12,0,.12.05.11,0,.11.07.09.07.06.05.06.06.07.09.08.1s0,.07,0,.1a.45.45,0,0,1,.06.12s0,.08,0,.12l0,.13a.49.49,0,0,1,0,.12.41.41,0,0,1,0,.11V56A1.3,1.3,0,0,1,61.1,57.3Z"/><path class="cls-3" d="M33.45,55.53V73.39a26.75,26.75,0,0,1-4.65-1.74V61.19a3,3,0,0,1,1-2.23Z"/><path class="cls-3" d="M41.63,47.92V74.34c-.31,0-.63,0-1,0A26.88,26.88,0,0,1,37,74.11V53.36a2.56,2.56,0,0,1,.81-1.86Z"/></svg>