<svg id="Layer_1" data-name="Layer 1" xmlns="http://www.w3.org/2000/svg" viewBox="0 0 1080 1080"><defs><style>.cls-1{font-size:35.3px;}.cls-1,.cls-2{font-family:HoonDdukbokR, "1HoonDdukbokki";}.cls-2{font-size:157.98px;}.cls-2,.cls-4{fill:#013379;}.cls-3{fill:#c60c32;}</style></defs><title>Choege logo</title><text class="cls-1" transform="translate(397.75 640.08)">Choege Investment Private Limited</text><text class="cls-2" transform="translate(399.14 575.79)">최게투자</text><path class="cls-3" d="M181.73,625.42l14.51-13.48v25.32A107.75,107.75,0,0,1,181.73,625.42Z"/><path class="cls-3" d="M324.67,465.33,304.8,483.77a8,8,0,0,1-9.54,1A73.82,73.82,0,0,0,274.05,476a75,75,0,0,0-13.77-2c-1.23-.06-2.47-.09-3.71-.09A74,74,0,0,0,242,475.34a72.88,72.88,0,0,0-13.78,4.14,74.53,74.53,0,0,0-38,102.93,7.76,7.76,0,0,1-1.65,9.22L168.7,610.15a107.4,107.4,0,0,1,59.56-165.39A104.4,104.4,0,0,1,242,442a107.34,107.34,0,0,1,14.53-1c1.24,0,2.48,0,3.71.07a102.43,102.43,0,0,1,13.77,1.36A106.76,106.76,0,0,1,324.67,465.33Z"/><path class="cls-4" d="M338.93,479.45l-24.16,22.44-37.61,34.92a9.71,9.71,0,0,0-3.11,7.12V654.37a107.41,107.41,0,0,0,64.88-174.92Zm-2.41,109.69a5.1,5.1,0,0,1-5.09-5.09V520.39l-34.61,32.15a5.09,5.09,0,1,1-6.93-7.45L333.05,505a2.88,2.88,0,0,1,.34-.27,2.66,2.66,0,0,1,.38-.28l.4-.23c.19-.09.34-.17.5-.23s.3-.1.45-.15a4.31,4.31,0,0,1,.49-.12l.48-.06.43,0h.34l.29,0,.45.08a3.92,3.92,0,0,1,.49.13l.47.17c.13.07.28.14.41.22a3.82,3.82,0,0,1,.45.27,4.11,4.11,0,0,1,.35.27l.24.21.24.24c.09.09.18.21.27.32a4.73,4.73,0,0,1,.28.39c.09.14.15.27.23.4s.16.33.22.49.11.3.16.46.08.34.11.5a3.93,3.93,0,0,1,.06.48c0,.14,0,.27,0,.42v75.32A5.09,5.09,0,0,1,336.52,589.14Z"/><path class="cls-3" d="M228.26,582.21V652a105.53,105.53,0,0,1-18.22-6.8v-40.9a11.88,11.88,0,0,1,3.79-8.71Z"/><path class="cls-3" d="M260.28,552.49V655.73c-1.23,0-2.47.07-3.71.07a109,109,0,0,1-14.53-1V573.75a9.93,9.93,0,0,1,3.18-7.29Z"/></svg>